<svg id="Layer_1" data-name="Layer 1" xmlns="http://www.w3.org/2000/svg" xmlns:xlink="http://www.w3.org/1999/xlink" viewBox="0 0 535.6 288.12"><defs><style>.cls-1{fill:url(#linear-gradient);}.cls-2{stroke:#000;stroke-miterlimit:10;fill:url(#linear-gradient-2);}.cls-3{fill:url(#linear-gradient-3);}</style><linearGradient id="linear-gradient" x1="102.3" y1="167.52" x2="102.3" y2="422.96" gradientTransform="matrix(1, 0, 0, -1, 0, 560)" gradientUnits="userSpaceOnUse"><stop offset="0.57" stop-color="#4c518c"/><stop offset="0.76" stop-color="#4172a9"/><stop offset="1" stop-color="#39c"/></linearGradient><linearGradient id="linear-gradient-2" x1="33.52" y1="246.54" x2="81.79" y2="344.75" gradientTransform="matrix(1, 0, 0, -1, 0, 560)" gradientUnits="userSpaceOnUse"><stop offset="0.09" stop-color="#da2c38"/><stop offset="0.89" stop-color="#eca400"/></linearGradient><linearGradient id="linear-gradient-3" x1="36.71" y1="244.94" x2="85.27" y2="343.73" xlink:href="#linear-gradient-2"/></defs><title>Folio logo</title><g id="Flip_F" data-name="Flip F"><path class="cls-1" d="M30.3,154.7c0-18.6,18-18.6,27-18.6h108c9,0,9,6.1,9,9.3v46.5c0,3.2,0,9.2-9,9.2h-72v37.2h63c9,0,9,6.1,9,9.3v37.2c0,9.3-6.6,9.3-9,9.3h-72V414.9c0,9.3-6.6,9.3-9,9.3H35.6a5.44,5.44,0,0,1-5.3-5.5Z" transform="translate(-30.3 -136.08)"/><path class="cls-2" d="M99.7,136.7c-.1.3-.2.4-.3.4a.31.31,0,0,0-.2.1.1.1,0,0,1-.1.1l-.1.1c-.1.1-.1.1-.2.1h0c-.8.7-7.1,2.1-7.1,2.1a5.47,5.47,0,0,1,2-.4h1.7a88.89,88.89,0,0,1,13.5,4.5,98.43,98.43,0,0,1,26.9,16.8c-4.4,9.2-8.1,25.3-20.2,43.2C74.5,267.3,39.5,333.5,36.3,340c-1.6,3.2-3.6,6.2-5,9.5h0a1.69,1.69,0,0,0-.4.7v-.8c-1-2.3,20.6-78.1,30.3-111.9,8.9-31.1,17.6-62.4,26.6-93.5h0a10.24,10.24,0,0,1,1.5-3.6,12.28,12.28,0,0,1,3.9-3.8h4.9" transform="translate(-30.3 -136.08)"/><path class="cls-3" d="M137.6,157.9c-5.3,9.2-10.7,39.5-20.2,43.2-22.7,8.9-10.1,12.8-14.9,20.3-3.8,5.7-7.4,11.1-10.4,16.5-38,69.2-63.2,119.7-58.5,105.9.3-.8.4-1.1.4-1.1s-.2.5-.4,1.1c0,0-2.1,6.2-3.2,6.4h-.1v-.5c.3-.9.6-2.2,1.1-3.7,15.6-41.3,31-111.3,31-111.3s32.5-97.4,33.9-97a5.34,5.34,0,0,0,3.5-.4,93.67,93.67,0,0,1,10.8,3.8A96.65,96.65,0,0,1,137.6,157.9Z" transform="translate(-30.3 -136.08)"/><path d="M92.9,239.1a1.6,1.6,0,0,1,1.4-.8h62.1c9,0,9,6.1,9,9.3v37.2c0,3.2,0,9.3-9,9.3H86a1.58,1.58,0,0,0-1.6,1.6V414.8c0,9.3-6.6,9.3-9,9.3H34.7c-2.4,0-4.4-2.6-4.4-5.8V349.8h0c0-.1.1-.2.2-.4Zm25.7-40c6-7.8,5.2-17.4,5.1-19.1-.8-9.4-6.5-20-15.3-24.8-7.3-4-13.2-8-15.1-9.9-4.8-5-3.1-9.2,3.8-9.2h68.3s9.9-.9,9,9.3v46.5c0,1.9,0,4.7-1.8,6.7-2.2,2.4-5.7,2.4-7.2,2.5-7.6.1-25.3.3-48.9.4A19.59,19.59,0,0,0,118.6,199.1Z" transform="translate(-30.3 -136.08)"/></g><path d="M302.9,346c0,43.1-32.8,78.1-73.3,78.1s-73.3-34.9-73.3-78.1,32.8-78.1,73.3-78.1S303,302.9,302.9,346Zm-37.6,0a35.5,35.5,0,1,0-35.5,35.5A35.51,35.51,0,0,0,265.3,346Z" transform="translate(-30.3 -136.08)"/><path d="M317.4,424.1c-8.1,0-8.1-9-8.1-18v-225s0-9,8.1-9h32.2c8.1,0,8.1,6.6,8.1,9v225c0,9,0,18-8.1,18Z" transform="translate(-30.3 -136.08)"/><path d="M389.8,271.1a24.18,24.18,0,0,1-24.2-24h0a24.18,24.18,0,0,1,24.2-24h0a24.18,24.18,0,0,1,24.2,24h0a24.18,24.18,0,0,1-24.2,24Zm-16.1,153c-8.1,0-8.1-6.6-8.1-9v-126c0-9,6.1-9,8.1-9h32.2c8.1,0,8.1,6.6,8.1,9v126c0,2.4,0,9-8.1,9Z" transform="translate(-30.3 -136.08)"/><path d="M565.9,346c0,43.1-32.8,78.1-73.3,78.1s-73.3-34.9-73.3-78.1,32.8-78.1,73.3-78.1S566,302.9,565.9,346Zm-37.8,0a35.5,35.5,0,1,0-35.5,35.5A35.51,35.51,0,0,0,528.1,346Z" transform="translate(-30.3 -136.08)"/><path d="M18.4,345.7" transform="translate(-30.3 -136.08)"/></svg>